<mxfile host="app.diagrams.net" modified="2024-04-06T02:21:43.413Z" agent="Mozilla/5.0 (Windows NT 10.0; Win64; x64) AppleWebKit/537.36 (KHTML, like Gecko) Chrome/123.0.0.0 Safari/537.36" etag="KjqdSjjsqxhj3t2xZd-F" version="24.2.2" type="device">
  <diagram name="Page-1" id="EP6enxlJz75ZMVeY_ty2">
    <mxGraphModel dx="934" dy="485" grid="1" gridSize="10" guides="1" tooltips="1" connect="1" arrows="1" fold="1" page="1" pageScale="1" pageWidth="827" pageHeight="1169" math="0" shadow="0">
      <root>
        <mxCell id="0" />
        <mxCell id="1" parent="0" />
        <mxCell id="9QXDIH8p34W6BsLQxX8Z-2" value="" style="rounded=0;whiteSpace=wrap;html=1;fillColor=#d5e8d4;strokeColor=#82b366;" vertex="1" parent="1">
          <mxGeometry x="60" y="10" width="726" height="500" as="geometry" />
        </mxCell>
        <mxCell id="9QXDIH8p34W6BsLQxX8Z-3" value="Trang chủ" style="rounded=1;whiteSpace=wrap;html=1;" vertex="1" parent="1">
          <mxGeometry x="90" y="30" width="120" height="60" as="geometry" />
        </mxCell>
        <mxCell id="9QXDIH8p34W6BsLQxX8Z-4" value="Tin tức" style="rounded=1;whiteSpace=wrap;html=1;" vertex="1" parent="1">
          <mxGeometry x="220" y="30" width="120" height="60" as="geometry" />
        </mxCell>
        <mxCell id="9QXDIH8p34W6BsLQxX8Z-5" value="Hỏi đáp" style="rounded=1;whiteSpace=wrap;html=1;" vertex="1" parent="1">
          <mxGeometry x="360" y="30" width="120" height="60" as="geometry" />
        </mxCell>
        <mxCell id="9QXDIH8p34W6BsLQxX8Z-6" value="Liên hệ" style="rounded=1;whiteSpace=wrap;html=1;" vertex="1" parent="1">
          <mxGeometry x="500" y="30" width="120" height="60" as="geometry" />
        </mxCell>
        <mxCell id="9QXDIH8p34W6BsLQxX8Z-7" value="Về chúng tôi" style="rounded=1;whiteSpace=wrap;html=1;" vertex="1" parent="1">
          <mxGeometry x="640" y="30" width="120" height="60" as="geometry" />
        </mxCell>
        <mxCell id="9QXDIH8p34W6BsLQxX8Z-9" value="Hình ảnh" style="rounded=0;whiteSpace=wrap;html=1;fillColor=#1ba1e2;fontColor=#ffffff;strokeColor=#006EAF;" vertex="1" parent="1">
          <mxGeometry x="90" y="130" width="670" height="260" as="geometry" />
        </mxCell>
        <mxCell id="9QXDIH8p34W6BsLQxX8Z-12" value="" style="endArrow=classic;startArrow=classic;html=1;rounded=0;entryX=0;entryY=0.385;entryDx=0;entryDy=0;entryPerimeter=0;" edge="1" parent="1" target="9QXDIH8p34W6BsLQxX8Z-9">
          <mxGeometry width="50" height="50" relative="1" as="geometry">
            <mxPoint x="60" y="230" as="sourcePoint" />
            <mxPoint x="90" y="180" as="targetPoint" />
          </mxGeometry>
        </mxCell>
        <mxCell id="9QXDIH8p34W6BsLQxX8Z-13" value="30px" style="text;html=1;align=center;verticalAlign=middle;whiteSpace=wrap;rounded=0;" vertex="1" parent="1">
          <mxGeometry x="50" y="230" width="60" height="30" as="geometry" />
        </mxCell>
        <mxCell id="9QXDIH8p34W6BsLQxX8Z-14" value="" style="endArrow=classic;startArrow=classic;html=1;rounded=0;exitX=0.278;exitY=0;exitDx=0;exitDy=0;exitPerimeter=0;" edge="1" parent="1" source="9QXDIH8p34W6BsLQxX8Z-9">
          <mxGeometry width="50" height="50" relative="1" as="geometry">
            <mxPoint x="230" y="150" as="sourcePoint" />
            <mxPoint x="276" y="100" as="targetPoint" />
          </mxGeometry>
        </mxCell>
        <mxCell id="9QXDIH8p34W6BsLQxX8Z-15" value="35px" style="text;html=1;align=center;verticalAlign=middle;whiteSpace=wrap;rounded=0;" vertex="1" parent="1">
          <mxGeometry x="290" y="100" width="60" height="30" as="geometry" />
        </mxCell>
        <mxCell id="9QXDIH8p34W6BsLQxX8Z-17" value="Footer" style="rounded=0;whiteSpace=wrap;html=1;fillColor=#60a917;fontColor=#ffffff;strokeColor=#2D7600;" vertex="1" parent="1">
          <mxGeometry x="88" y="410" width="670" height="90" as="geometry" />
        </mxCell>
        <mxCell id="9QXDIH8p34W6BsLQxX8Z-19" value="" style="endArrow=classic;startArrow=classic;html=1;rounded=0;exitX=0.058;exitY=-0.01;exitDx=0;exitDy=0;exitPerimeter=0;" edge="1" parent="1" source="9QXDIH8p34W6BsLQxX8Z-17">
          <mxGeometry width="50" height="50" relative="1" as="geometry">
            <mxPoint x="80" y="440" as="sourcePoint" />
            <mxPoint x="130" y="390" as="targetPoint" />
          </mxGeometry>
        </mxCell>
        <mxCell id="9QXDIH8p34W6BsLQxX8Z-20" value="10px" style="text;html=1;align=center;verticalAlign=middle;whiteSpace=wrap;rounded=0;" vertex="1" parent="1">
          <mxGeometry x="120" y="390" width="60" height="30" as="geometry" />
        </mxCell>
      </root>
    </mxGraphModel>
  </diagram>
</mxfile>
